# xmcd CD database file
#
# Track frame offsets:
#	150
#	17525
#	36530
#	47430
#	63337
#	83577
#	97685
#	117170
#	133770
#	148742
#
# Disc length: 2155 seconds
#
# Revision: 3
# Processed by: cddbd v1.5.2PL0 Copyright (c) Steve Scherf et al.
# Submitted via: CDex 1.51
#
DISCID=7b08690a
DTITLE=Linda Ronstadt - Don't Cry Now
DYEAR=1973
DGENRE=Rock
TTITLE0=I Can Almost See It
TTITLE1=Love Has No Pride
TTITLE2=Silver Threads And Golden Needles
TTITLE3=Desperado
TTITLE4=Don't Cry Now
TTITLE5=Sail Away
TTITLE6=Colorado
TTITLE7=The Fast One
TTITLE8=Everybody Loves A Winner
TTITLE9=I Believe In You
EXTD=(c)1973 Asylum Records/Warner Bros/Teldec Germany\nupc 075596062527 YEAR: 1973
EXTT0=
EXTT1=
EXTT2=
EXTT3=
EXTT4=
EXTT5=
EXTT6=
EXTT7=
EXTT8=
EXTT9=
PLAYORDER=
